<svg width="169" height="66" viewBox="0 0 169 66" fill="none" xmlns="http://www.w3.org/2000/svg">
<rect width="169" height="66" rx="30" fill="#A9DEB9"/>
<path d="M51.8 45L64.4 17H69.52L82.16 45H76.72L65.88 19.76H67.96L57.16 45H51.8ZM57.6 38.52L59 34.44H74.12L75.52 38.52H57.6ZM94.4156 45V41.52L105.536 30.96C106.469 30.08 107.162 29.3067 107.616 28.64C108.069 27.9733 108.362 27.36 108.496 26.8C108.656 26.2133 108.736 25.6667 108.736 25.16C108.736 23.88 108.296 22.8933 107.416 22.2C106.536 21.48 105.242 21.12 103.536 21.12C102.176 21.12 100.936 21.36 99.8156 21.84C98.7223 22.32 97.7756 23.0533 96.9756 24.04L93.3356 21.24C94.429 19.7733 95.8956 18.64 97.7356 17.84C99.6023 17.0133 101.682 16.6 103.976 16.6C106.002 16.6 107.762 16.9333 109.256 17.6C110.776 18.24 111.936 19.16 112.736 20.36C113.562 21.56 113.976 22.9867 113.976 24.64C113.976 25.5467 113.856 26.4533 113.616 27.36C113.376 28.24 112.922 29.1733 112.256 30.16C111.589 31.1467 110.616 32.2533 109.336 33.48L99.7756 42.56L98.6956 40.6H115.056V45H94.4156Z" fill="#335E40"/>
</svg>
