<svg width="137" height="51" viewBox="0 0 137 51" fill="none" xmlns="http://www.w3.org/2000/svg">
<rect width="131" height="51" rx="25" fill="url(#paint0_linear_7_40)"/>
<path d="M49.22 33.2C48.1267 33.2 47.08 33.0467 46.08 32.74C45.08 32.42 44.2867 32.0133 43.7 31.52L44.6 29.5C45.16 29.94 45.8533 30.3067 46.68 30.6C47.5067 30.8933 48.3533 31.04 49.22 31.04C49.9533 31.04 50.5467 30.96 51 30.8C51.4533 30.64 51.7867 30.4267 52 30.16C52.2133 29.88 52.32 29.5667 52.32 29.22C52.32 28.7933 52.1667 28.4533 51.86 28.2C51.5533 27.9333 51.1533 27.7267 50.66 27.58C50.18 27.42 49.64 27.2733 49.04 27.14C48.4533 27.0067 47.86 26.8533 47.26 26.68C46.6733 26.4933 46.1333 26.26 45.64 25.98C45.16 25.6867 44.7667 25.3 44.46 24.82C44.1533 24.34 44 23.7267 44 22.98C44 22.22 44.2 21.5267 44.6 20.9C45.0133 20.26 45.6333 19.7533 46.46 19.38C47.3 18.9933 48.36 18.8 49.64 18.8C50.48 18.8 51.3133 18.9067 52.14 19.12C52.9667 19.3333 53.6867 19.64 54.3 20.04L53.48 22.06C52.8533 21.6867 52.2067 21.4133 51.54 21.24C50.8733 21.0533 50.2333 20.96 49.62 20.96C48.9 20.96 48.3133 21.0467 47.86 21.22C47.42 21.3933 47.0933 21.62 46.88 21.9C46.68 22.18 46.58 22.5 46.58 22.86C46.58 23.2867 46.7267 23.6333 47.02 23.9C47.3267 24.1533 47.72 24.3533 48.2 24.5C48.6933 24.6467 49.24 24.7933 49.84 24.94C50.44 25.0733 51.0333 25.2267 51.62 25.4C52.22 25.5733 52.76 25.8 53.24 26.08C53.7333 26.36 54.1267 26.74 54.42 27.22C54.7267 27.7 54.88 28.3067 54.88 29.04C54.88 29.7867 54.6733 30.48 54.26 31.12C53.86 31.7467 53.24 32.2533 52.4 32.64C51.56 33.0133 50.5 33.2 49.22 33.2ZM61.2381 33.14C60.0648 33.14 59.1581 32.84 58.5181 32.24C57.8781 31.6267 57.5581 30.7267 57.5581 29.54V19.96H60.0581V29.48C60.0581 29.9867 60.1848 30.38 60.4381 30.66C60.7048 30.94 61.0715 31.08 61.5381 31.08C62.0981 31.08 62.5648 30.9333 62.9381 30.64L63.6381 32.42C63.3448 32.66 62.9848 32.84 62.5581 32.96C62.1315 33.08 61.6915 33.14 61.2381 33.14ZM55.7981 24.4V22.4H62.9181V24.4H55.7981ZM72.2747 33V30.84L72.1347 30.38V26.6C72.1347 25.8667 71.9147 25.3 71.4747 24.9C71.0347 24.4867 70.368 24.28 69.4747 24.28C68.8747 24.28 68.2814 24.3733 67.6947 24.56C67.1214 24.7467 66.6347 25.0067 66.2347 25.34L65.2547 23.52C65.828 23.08 66.508 22.7533 67.2947 22.54C68.0947 22.3133 68.9214 22.2 69.7747 22.2C71.3214 22.2 72.5147 22.5733 73.3547 23.32C74.208 24.0533 74.6347 25.1933 74.6347 26.74V33H72.2747ZM68.9147 33.14C68.1147 33.14 67.4147 33.0067 66.8147 32.74C66.2147 32.46 65.748 32.08 65.4147 31.6C65.0947 31.1067 64.9347 30.5533 64.9347 29.94C64.9347 29.34 65.0747 28.8 65.3547 28.32C65.648 27.84 66.1214 27.46 66.7747 27.18C67.428 26.9 68.2947 26.76 69.3747 26.76H72.4747V28.42H69.5547C68.7014 28.42 68.128 28.56 67.8347 28.84C67.5414 29.1067 67.3947 29.44 67.3947 29.84C67.3947 30.2933 67.5747 30.6533 67.9347 30.92C68.2947 31.1867 68.7947 31.32 69.4347 31.32C70.048 31.32 70.5947 31.18 71.0747 30.9C71.568 30.62 71.9214 30.2067 72.1347 29.66L72.5547 31.16C72.3147 31.7867 71.8814 32.2733 71.2547 32.62C70.6414 32.9667 69.8614 33.14 68.9147 33.14ZM77.8431 33V22.32H80.2231V25.26L79.9431 24.4C80.2631 23.68 80.7631 23.1333 81.4431 22.76C82.1365 22.3867 82.9965 22.2 84.0231 22.2V24.58C83.9165 24.5533 83.8165 24.54 83.7231 24.54C83.6298 24.5267 83.5365 24.52 83.4431 24.52C82.4965 24.52 81.7431 24.8 81.1831 25.36C80.6231 25.9067 80.3431 26.7267 80.3431 27.82V33H77.8431ZM90.5545 33.14C89.3812 33.14 88.4745 32.84 87.8345 32.24C87.1945 31.6267 86.8745 30.7267 86.8745 29.54V19.96H89.3745V29.48C89.3745 29.9867 89.5012 30.38 89.7545 30.66C90.0212 30.94 90.3879 31.08 90.8545 31.08C91.4145 31.08 91.8812 30.9333 92.2545 30.64L92.9545 32.42C92.6612 32.66 92.3012 32.84 91.8745 32.96C91.4479 33.08 91.0079 33.14 90.5545 33.14ZM85.1145 24.4V22.4H92.2345V24.4H85.1145Z" fill="#335E40"/>
<defs>
<linearGradient id="paint0_linear_7_40" x1="0" y1="25.5" x2="131" y2="25.5" gradientUnits="userSpaceOnUse">
<stop stop-color="#A9DEB9"/>
<stop offset="0.990385" stop-color="#DAF1E1"/>
</linearGradient>
</defs>
</svg>
